G75*
G70*
%OFA0B0*%
%FSLAX24Y24*%
%IPPOS*%
%LPD*%
%AMOC8*
5,1,8,0,0,1.08239X$1,22.5*
%
%ADD10C,0.0552*%
%ADD11OC8,0.0600*%
%ADD12C,0.0640*%
%ADD13C,0.0600*%
%ADD14C,0.0600*%
%ADD15OC8,0.0680*%
%ADD16C,0.0680*%
%ADD17R,0.0595X0.0595*%
%ADD18C,0.0595*%
%ADD19OC8,0.0640*%
%ADD20C,0.0785*%
%ADD21C,0.1340*%
%ADD22C,0.1182*%
%ADD23R,0.0907X0.0907*%
%ADD24C,0.1025*%
%ADD25R,0.0674X0.0674*%
%ADD26C,0.0674*%
%ADD27C,0.0476*%
%ADD28C,0.0555*%
D10*
X054940Y008571D03*
X060100Y023451D03*
D11*
X060100Y022251D03*
X060100Y020651D03*
X060100Y019051D03*
X060100Y017451D03*
X062340Y018491D03*
X062340Y019891D03*
X062340Y021891D03*
X063420Y023171D03*
X065420Y023171D03*
X066340Y018491D03*
X065420Y017091D03*
X063420Y017091D03*
X062340Y015811D03*
X060100Y015291D03*
X060100Y013691D03*
X062340Y013811D03*
X062340Y012411D03*
X066340Y012411D03*
X057780Y011611D03*
X055820Y012891D03*
X056100Y013691D03*
X056100Y015291D03*
X056100Y017451D03*
X056100Y019051D03*
X056100Y020651D03*
X056100Y022251D03*
X049220Y022251D03*
X049220Y020651D03*
X049220Y019051D03*
X049220Y017451D03*
X049220Y015291D03*
X049220Y013691D03*
X045220Y013691D03*
X045220Y015291D03*
X045220Y017451D03*
X045220Y019051D03*
X045220Y020651D03*
X045220Y022251D03*
X048020Y028571D03*
X048020Y029971D03*
X048020Y031971D03*
X049100Y033251D03*
X051100Y033251D03*
X052020Y028571D03*
X044100Y029531D03*
X041940Y030971D03*
X040420Y030971D03*
X044100Y033531D03*
X041940Y034971D03*
X040420Y034971D03*
X032980Y034691D03*
X032980Y032691D03*
X032700Y031051D03*
X033700Y029531D03*
X030700Y031051D03*
X029700Y029531D03*
X024900Y028731D03*
X021700Y030331D03*
X020900Y028731D03*
X024100Y031911D03*
X024100Y032911D03*
X021700Y034331D03*
X014420Y026411D03*
X010420Y026411D03*
X012100Y021511D03*
X010980Y020131D03*
X012100Y019511D03*
X010980Y018131D03*
X010980Y017491D03*
X010980Y015491D03*
X009180Y011931D03*
X007180Y011931D03*
X009460Y009311D03*
X009460Y008311D03*
X013300Y007531D03*
X013300Y009131D03*
X013300Y010731D03*
X017300Y010731D03*
X017300Y009131D03*
X017300Y007531D03*
X024460Y006571D03*
X026460Y006571D03*
X025960Y008731D03*
X024960Y008731D03*
X034820Y012311D03*
X037080Y009591D03*
X041080Y009591D03*
X034820Y016311D03*
X034820Y019831D03*
X034820Y023831D03*
X018820Y019891D03*
X018820Y017891D03*
X003380Y009571D03*
X003380Y007571D03*
X053780Y011611D03*
X053820Y012891D03*
D12*
X038780Y012711D02*
X038220Y012711D01*
X038220Y013711D02*
X038780Y013711D01*
X038780Y015591D02*
X038220Y015591D01*
X038220Y016591D02*
X038780Y016591D01*
D13*
X039020Y017931D02*
X038500Y017931D01*
X035820Y018191D02*
X035820Y017671D01*
X034820Y017671D02*
X034820Y018191D01*
X033820Y018191D02*
X033820Y017671D01*
X041500Y017931D02*
X042020Y017931D01*
X050980Y017451D02*
X051500Y017451D01*
X051500Y018451D02*
X050980Y018451D01*
X050980Y019451D02*
X051500Y019451D01*
X051500Y020451D02*
X050980Y020451D01*
X053980Y020451D02*
X054500Y020451D01*
X054500Y019451D02*
X053980Y019451D01*
X053980Y018451D02*
X054500Y018451D01*
X054500Y017451D02*
X053980Y017451D01*
X053980Y016451D02*
X054500Y016451D01*
X054500Y015451D02*
X053980Y015451D01*
X053980Y014451D02*
X054500Y014451D01*
X051500Y014451D02*
X050980Y014451D01*
X050980Y015451D02*
X051500Y015451D01*
X051500Y016451D02*
X050980Y016451D01*
X042020Y025611D02*
X041500Y025611D01*
X039020Y025611D02*
X038500Y025611D01*
X035820Y025871D02*
X035820Y025351D01*
X034820Y025351D02*
X034820Y025871D01*
X033820Y025871D02*
X033820Y025351D01*
X017780Y025471D02*
X017260Y025471D01*
X017260Y024471D02*
X017780Y024471D01*
X017780Y023471D02*
X017260Y023471D01*
X017260Y022471D02*
X017780Y022471D01*
X017780Y021471D02*
X017260Y021471D01*
X017260Y020471D02*
X017780Y020471D01*
X017780Y019471D02*
X017260Y019471D01*
X017260Y018471D02*
X017780Y018471D01*
X017780Y017471D02*
X017260Y017471D01*
X017260Y016471D02*
X017780Y016471D01*
X017780Y015471D02*
X017260Y015471D01*
X017260Y014471D02*
X017780Y014471D01*
X017780Y013471D02*
X017260Y013471D01*
X017260Y012471D02*
X017780Y012471D01*
X014780Y012471D02*
X014260Y012471D01*
X014260Y013471D02*
X014780Y013471D01*
X014780Y014471D02*
X014260Y014471D01*
X014260Y015471D02*
X014780Y015471D01*
X014780Y016471D02*
X014260Y016471D01*
X014260Y017471D02*
X014780Y017471D01*
X014780Y018471D02*
X014260Y018471D01*
X014260Y019471D02*
X014780Y019471D01*
X014780Y020471D02*
X014260Y020471D01*
X014260Y021471D02*
X014780Y021471D01*
X014780Y022471D02*
X014260Y022471D01*
X014260Y023471D02*
X014780Y023471D01*
X014780Y024471D02*
X014260Y024471D01*
X014260Y025471D02*
X014780Y025471D01*
D14*
X012580Y017761D03*
X012580Y015861D03*
D15*
X057060Y009711D03*
X058060Y009711D03*
X059060Y009711D03*
X060060Y009711D03*
X061060Y009711D03*
X062060Y009711D03*
X063060Y009711D03*
X064060Y009711D03*
X065060Y009711D03*
X066060Y009711D03*
X067060Y009711D03*
X068060Y009711D03*
X069060Y009711D03*
X069060Y008711D03*
X068060Y008711D03*
X067060Y008711D03*
X066060Y008711D03*
X065060Y008711D03*
X064060Y008711D03*
X063060Y008711D03*
X062060Y008711D03*
X061060Y008711D03*
X060060Y008711D03*
X059060Y008711D03*
X058060Y008711D03*
X057060Y008711D03*
X057060Y032011D03*
X058060Y032011D03*
X059060Y032011D03*
X060060Y032011D03*
X061060Y032011D03*
X062060Y032011D03*
X063060Y032011D03*
X064060Y032011D03*
X065060Y032011D03*
X066060Y032011D03*
X067060Y032011D03*
X068060Y032011D03*
X069060Y032011D03*
X069060Y033011D03*
X068060Y033011D03*
X067060Y033011D03*
X066060Y033011D03*
X065060Y033011D03*
X064060Y033011D03*
X063060Y033011D03*
X062060Y033011D03*
X061060Y033011D03*
X060060Y033011D03*
X059060Y033011D03*
X058060Y033011D03*
X057060Y033011D03*
D16*
X005620Y006931D02*
X005620Y006331D01*
X006620Y006331D02*
X006620Y006931D01*
X007620Y006931D02*
X007620Y006331D01*
X008620Y006331D02*
X008620Y006931D01*
X009620Y006931D02*
X009620Y006331D01*
X045240Y025411D02*
X045240Y026011D01*
X046240Y026011D02*
X046240Y025411D01*
X047240Y025411D02*
X047240Y026011D01*
X048240Y026011D02*
X048240Y025411D01*
X049240Y025411D02*
X049240Y026011D01*
X050240Y026011D02*
X050240Y025411D01*
X051240Y025411D02*
X051240Y026011D01*
X052240Y026011D02*
X052240Y025411D01*
X053240Y025411D02*
X053240Y026011D01*
X054240Y026011D02*
X054240Y025411D01*
X055240Y025411D02*
X055240Y026011D01*
X056240Y026011D02*
X056240Y025411D01*
X057240Y025411D02*
X057240Y026011D01*
X058240Y026011D02*
X058240Y025411D01*
X059240Y025411D02*
X059240Y026011D01*
X060240Y026011D02*
X060240Y025411D01*
X061240Y025411D02*
X061240Y026011D01*
X062240Y026011D02*
X062240Y025411D01*
X063240Y025411D02*
X063240Y026011D01*
X064240Y026011D02*
X064240Y025411D01*
X065240Y025411D02*
X065240Y026011D01*
X066240Y026011D02*
X066240Y025411D01*
X067240Y025411D02*
X067240Y026011D01*
X068240Y026011D02*
X068240Y025411D01*
X069240Y025411D02*
X069240Y026011D01*
X069240Y034371D02*
X069240Y034971D01*
X068240Y034971D02*
X068240Y034371D01*
X067240Y034371D02*
X067240Y034971D01*
X066240Y034971D02*
X066240Y034371D01*
X065240Y034371D02*
X065240Y034971D01*
X064240Y034971D02*
X064240Y034371D01*
X063240Y034371D02*
X063240Y034971D01*
X062240Y034971D02*
X062240Y034371D01*
X061240Y034371D02*
X061240Y034971D01*
X060240Y034971D02*
X060240Y034371D01*
X059240Y034371D02*
X059240Y034971D01*
X058240Y034971D02*
X058240Y034371D01*
X057240Y034371D02*
X057240Y034971D01*
X056240Y034971D02*
X056240Y034371D01*
X055240Y034371D02*
X055240Y034971D01*
X054240Y034971D02*
X054240Y034371D01*
X053240Y034371D02*
X053240Y034971D01*
X052240Y034971D02*
X052240Y034371D01*
X051240Y034371D02*
X051240Y034971D01*
X050240Y034971D02*
X050240Y034371D01*
X049240Y034371D02*
X049240Y034971D01*
X048240Y034971D02*
X048240Y034371D01*
X047240Y034371D02*
X047240Y034971D01*
X046240Y034971D02*
X046240Y034371D01*
X045240Y034371D02*
X045240Y034971D01*
X020380Y033531D02*
X020380Y032931D01*
X019380Y032931D02*
X019380Y033531D01*
X018380Y033531D02*
X018380Y032931D01*
X017380Y032931D02*
X017380Y033531D01*
X016380Y033531D02*
X016380Y032931D01*
D17*
X003700Y028411D03*
D18*
X004700Y028153D02*
X004700Y028668D01*
X005700Y028668D02*
X005700Y028153D01*
X006700Y028153D02*
X006700Y028668D01*
X007700Y028668D02*
X007700Y028153D01*
X008700Y028153D02*
X008700Y028668D01*
X009700Y028668D02*
X009700Y028153D01*
X010700Y028153D02*
X010700Y028668D01*
X011700Y028668D02*
X011700Y028153D01*
X011700Y034153D02*
X011700Y034668D01*
X010700Y034668D02*
X010700Y034153D01*
X009700Y034153D02*
X009700Y034668D01*
X008700Y034668D02*
X008700Y034153D01*
X007700Y034153D02*
X007700Y034668D01*
X006700Y034668D02*
X006700Y034153D01*
X005700Y034153D02*
X005700Y034668D01*
X004700Y034668D02*
X004700Y034153D01*
X003700Y034153D02*
X003700Y034668D01*
D19*
X026680Y032411D03*
X029680Y032411D03*
X012020Y011951D03*
X012020Y006951D03*
X012560Y005931D03*
X017560Y005931D03*
D20*
X042156Y007118D02*
X042156Y007823D01*
X044124Y007823D02*
X044124Y007118D01*
X046187Y007118D02*
X046187Y007823D01*
X048156Y007823D02*
X048156Y007118D01*
X050124Y007118D02*
X050124Y007823D01*
X052093Y007823D02*
X052093Y007118D01*
X068288Y021826D02*
X068993Y021826D01*
X068993Y023795D02*
X068288Y023795D01*
D21*
X058580Y006331D03*
X034900Y010171D03*
X035460Y028491D03*
X004340Y020171D03*
D22*
X003300Y016731D03*
X003300Y023691D03*
X043460Y012091D03*
X051540Y012091D03*
D23*
X032184Y010251D03*
X027460Y010251D03*
X027456Y027331D03*
X032180Y027331D03*
D24*
X030290Y028118D02*
X029345Y028118D01*
X027456Y023000D02*
X027456Y022055D01*
X032180Y022055D02*
X032180Y023000D01*
X032184Y015526D02*
X032184Y014581D01*
X027460Y014581D02*
X027460Y015526D01*
X029350Y009463D02*
X030295Y009463D01*
D25*
X009320Y016691D03*
X043500Y023611D03*
X044500Y023611D03*
X045500Y023611D03*
X046500Y023611D03*
X047500Y023611D03*
X048500Y023611D03*
X049500Y023611D03*
X050500Y023611D03*
X051500Y023611D03*
D26*
X009617Y023691D02*
X009023Y023691D01*
X009023Y022691D02*
X009617Y022691D01*
X009617Y021691D02*
X009023Y021691D01*
X009023Y020691D02*
X009617Y020691D01*
X009617Y019691D02*
X009023Y019691D01*
X009023Y018691D02*
X009617Y018691D01*
X009617Y017691D02*
X009023Y017691D01*
D27*
X006980Y016891D03*
X008020Y015211D03*
X008020Y014411D03*
X009940Y015451D03*
X006820Y013371D03*
X005700Y013131D03*
X005380Y011771D03*
X004900Y011291D03*
X004100Y010731D03*
X003700Y010331D03*
X004100Y009371D03*
X004020Y008411D03*
X004260Y007611D03*
X006180Y007691D03*
X008100Y007531D03*
X008100Y009131D03*
X008580Y009531D03*
X009460Y010411D03*
X008020Y010811D03*
X007620Y011371D03*
X006820Y011291D03*
X006100Y010811D03*
X012660Y008331D03*
X013060Y012411D03*
X015380Y012971D03*
X019620Y014011D03*
X020100Y014651D03*
X020900Y015211D03*
X020900Y015851D03*
X020900Y016491D03*
X020900Y017131D03*
X020900Y017771D03*
X020900Y018411D03*
X020900Y019051D03*
X021540Y019051D03*
X022180Y019051D03*
X022820Y019051D03*
X023460Y019051D03*
X024100Y019051D03*
X024740Y019051D03*
X025380Y019051D03*
X025380Y019691D03*
X025380Y020331D03*
X025380Y020971D03*
X024740Y020971D03*
X024100Y020971D03*
X023460Y020971D03*
X022820Y020971D03*
X022180Y020971D03*
X021540Y020971D03*
X020900Y020971D03*
X020900Y020331D03*
X021540Y020331D03*
X022180Y020331D03*
X022820Y020331D03*
X023460Y020331D03*
X024100Y020331D03*
X024740Y020331D03*
X024740Y019691D03*
X024100Y019691D03*
X023460Y019691D03*
X022820Y019691D03*
X022180Y019691D03*
X021540Y019691D03*
X020900Y019691D03*
X019780Y021611D03*
X019220Y021851D03*
X018660Y022011D03*
X015940Y020091D03*
X015540Y021131D03*
X016660Y018971D03*
X016420Y017611D03*
X018180Y017131D03*
X022820Y014731D03*
X023460Y014731D03*
X024100Y014731D03*
X024740Y014731D03*
X022580Y011611D03*
X022580Y010971D03*
X020420Y012011D03*
X019940Y010891D03*
X020180Y009371D03*
X029860Y011371D03*
X029860Y014091D03*
X034100Y013771D03*
X034180Y014411D03*
X034180Y015051D03*
X036100Y013771D03*
X038500Y011451D03*
X040900Y011771D03*
X043540Y009371D03*
X040180Y006251D03*
X039620Y005051D03*
X038180Y006251D03*
X036340Y006651D03*
X035700Y007131D03*
X033140Y008571D03*
X040020Y015371D03*
X046340Y015291D03*
X047300Y014491D03*
X050020Y013931D03*
X052900Y014491D03*
X050020Y016971D03*
X048340Y019051D03*
X045940Y021131D03*
X046180Y022891D03*
X042420Y023451D03*
X042980Y025691D03*
X045620Y028971D03*
X046020Y030651D03*
X044900Y031131D03*
X047220Y032891D03*
X048260Y033131D03*
X048020Y031291D03*
X048020Y030651D03*
X051860Y031211D03*
X052020Y030171D03*
X054820Y029851D03*
X056100Y030411D03*
X057460Y029531D03*
X058260Y030171D03*
X059460Y028891D03*
X058660Y028091D03*
X058740Y027371D03*
X058180Y026971D03*
X061780Y026571D03*
X064900Y023931D03*
X063860Y022731D03*
X063220Y022331D03*
X063220Y021531D03*
X062340Y021131D03*
X062340Y020571D03*
X061140Y021531D03*
X059140Y020651D03*
X056820Y022891D03*
X058020Y023771D03*
X066500Y021131D03*
X066340Y020491D03*
X066820Y022171D03*
X066660Y023131D03*
X068340Y023131D03*
X069060Y024651D03*
X069540Y026971D03*
X067700Y030171D03*
X066580Y030811D03*
X067300Y031211D03*
X055620Y033051D03*
X054980Y033691D03*
X051780Y033371D03*
X043300Y033531D03*
X039460Y033931D03*
X036100Y030811D03*
X036500Y030411D03*
X034980Y031771D03*
X034500Y032891D03*
X032660Y030331D03*
X029540Y030651D03*
X028100Y031931D03*
X028740Y032091D03*
X027300Y031931D03*
X026660Y031771D03*
X025700Y030891D03*
X025780Y030331D03*
X024900Y029691D03*
X023060Y029691D03*
X024900Y031131D03*
X023220Y031691D03*
X020420Y029611D03*
X019380Y029531D03*
X017380Y030011D03*
X017300Y031451D03*
X018340Y031211D03*
X017780Y032091D03*
X015700Y031851D03*
X015140Y032331D03*
X014580Y033531D03*
X012260Y033131D03*
X012260Y032571D03*
X012260Y032011D03*
X012260Y031451D03*
X012260Y030651D03*
X012260Y030091D03*
X012260Y029451D03*
X012420Y028411D03*
X015700Y028491D03*
X015460Y026651D03*
X016340Y026331D03*
X016500Y025691D03*
X019540Y025291D03*
X020260Y025371D03*
X021380Y025931D03*
X021860Y026731D03*
X021700Y027371D03*
X022340Y027851D03*
X023540Y027451D03*
X022980Y026971D03*
X020820Y027371D03*
X022180Y025211D03*
X025940Y026971D03*
X032820Y026411D03*
X033780Y027291D03*
X033140Y025291D03*
X033060Y024651D03*
X029700Y033291D03*
X030580Y034251D03*
X027380Y033371D03*
X026980Y034491D03*
X015140Y030651D03*
X014580Y030651D03*
X009220Y027211D03*
X008500Y027611D03*
X007940Y027611D03*
X007300Y027611D03*
X006740Y027611D03*
X006100Y027691D03*
X005220Y027691D03*
X004260Y027131D03*
X005540Y026251D03*
X004980Y025291D03*
X005540Y024971D03*
X004100Y025371D03*
X006020Y023371D03*
X006500Y022731D03*
X007380Y024971D03*
X007780Y025851D03*
X009300Y026171D03*
X012340Y025611D03*
X011090Y022681D03*
X010180Y021211D03*
X010260Y020651D03*
X002820Y029371D03*
X048740Y026571D03*
X065460Y018491D03*
X068580Y017611D03*
X069220Y016411D03*
X066340Y015051D03*
X066340Y014331D03*
X065220Y014171D03*
X067860Y013931D03*
X065700Y011931D03*
X067300Y011451D03*
X063300Y011451D03*
X060500Y011531D03*
X058900Y011611D03*
X062340Y014491D03*
X062420Y015051D03*
D28*
X037060Y008651D03*
X025460Y006571D03*
X025540Y005611D03*
X021940Y010171D03*
X027700Y030011D03*
X027700Y030651D03*
X027700Y031291D03*
M02*
