%
M48
M72
T01C0.0236
T02C0.0315
T03C0.0320
T04C0.0360
T05C0.0394
T06C0.0400
T07C0.0470
T08C0.0472
T09C0.0551
T10C0.0630
T11C0.1102
T12C0.1260
%
T01
X4260Y7611
X4020Y8411
X4100Y9371
X3700Y10331
X4100Y10731
X4900Y11291
X5380Y11771
X6100Y10811
X6820Y11291
X7620Y11371
X8020Y10811
X9460Y10411
X8580Y9531
X8100Y9131
X6180Y7691
X8100Y7531
X12660Y8331
X13060Y12411
X15380Y12971
X19620Y14011
X20100Y14651
X20900Y15211
X20900Y15851
X20900Y16491
X20900Y17131
X20900Y17771
X20900Y18411
X20900Y19051
X21540Y19051
X22180Y19051
X22820Y19051
X23460Y19051
X24100Y19051
X24740Y19051
X25380Y19051
X25380Y19691
X25380Y20331
X25380Y20971
X24740Y20971
X24100Y20971
X23460Y20971
X22820Y20971
X22180Y20971
X21540Y20971
X20900Y20971
X20900Y20331
X21540Y20331
X22180Y20331
X22820Y20331
X23460Y20331
X24100Y20331
X24740Y20331
X24740Y19691
X24100Y19691
X23460Y19691
X22820Y19691
X22180Y19691
X21540Y19691
X20900Y19691
X19780Y21611
X19220Y21851
X18660Y22011
X15940Y20091
X15540Y21131
X16660Y18971
X16420Y17611
X18180Y17131
X22820Y14731
X23460Y14731
X24100Y14731
X24740Y14731
X22580Y11611
X22580Y10971
X20420Y12011
X19940Y10891
X20180Y9371
X29860Y11371
X29860Y14091
X34100Y13771
X34180Y14411
X34180Y15051
X36100Y13771
X38500Y11451
X40900Y11771
X43540Y9371
X40180Y6251
X39620Y5051
X38180Y6251
X36340Y6651
X35700Y7131
X33140Y8571
X40020Y15371
X46340Y15291
X47300Y14491
X50020Y13931
X52900Y14491
X50020Y16971
X48340Y19051
X45940Y21131
X46180Y22891
X42420Y23451
X42980Y25691
X45620Y28971
X46020Y30651
X44900Y31131
X47220Y32891
X48260Y33131
X48020Y31291
X48020Y30651
X51860Y31211
X52020Y30171
X54820Y29851
X56100Y30411
X57460Y29531
X58260Y30171
X59460Y28891
X58660Y28091
X58740Y27371
X58180Y26971
X61780Y26571
X64900Y23931
X63860Y22731
X63220Y22331
X63220Y21531
X62340Y21131
X62340Y20571
X61140Y21531
X59140Y20651
X56820Y22891
X58020Y23771
X66500Y21131
X66340Y20491
X66820Y22171
X66660Y23131
X68340Y23131
X69060Y24651
X69540Y26971
X67700Y30171
X66580Y30811
X67300Y31211
X55620Y33051
X54980Y33691
X51780Y33371
X43300Y33531
X39460Y33931
X36100Y30811
X36500Y30411
X34980Y31771
X34500Y32891
X32660Y30331
X29540Y30651
X28100Y31931
X28740Y32091
X27300Y31931
X26660Y31771
X25700Y30891
X25780Y30331
X24900Y29691
X23060Y29691
X24900Y31131
X23220Y31691
X20420Y29611
X19380Y29531
X17380Y30011
X17300Y31451
X18340Y31211
X17780Y32091
X15700Y31851
X15140Y32331
X14580Y33531
X12260Y33131
X12260Y32571
X12260Y32011
X12260Y31451
X12260Y30651
X12260Y30091
X12260Y29451
X12420Y28411
X15700Y28491
X15460Y26651
X16340Y26331
X16500Y25691
X19540Y25291
X20260Y25371
X21380Y25931
X21860Y26731
X21700Y27371
X22340Y27851
X23540Y27451
X22980Y26971
X20820Y27371
X22180Y25211
X25940Y26971
X32820Y26411
X33780Y27291
X33140Y25291
X33060Y24651
X29700Y33291
X30580Y34251
X27380Y33371
X26980Y34491
X15140Y30651
X14580Y30651
X9220Y27211
X8500Y27611
X7940Y27611
X7300Y27611
X6740Y27611
X6100Y27691
X5220Y27691
X4260Y27131
X5540Y26251
X4980Y25291
X5540Y24971
X4100Y25371
X6020Y23371
X6500Y22731
X7380Y24971
X7780Y25851
X9300Y26171
X12340Y25611
X11090Y22681
X10180Y21211
X10260Y20651
X6980Y16891
X8020Y15211
X8020Y14411
X9940Y15451
X6820Y13371
X5700Y13131
X2820Y29371
X48740Y26571
X65460Y18491
X68580Y17611
X69220Y16411
X66340Y15051
X66340Y14331
X65220Y14171
X67860Y13931
X65700Y11931
X67300Y11451
X63300Y11451
X60500Y11531
X58900Y11611
X62340Y14491
X62420Y15051
T02
X37060Y8651
X25460Y6571
X25540Y5611
X21940Y10171
X11700Y28411
X10700Y28411
X9700Y28411
X8700Y28411
X7700Y28411
X6700Y28411
X5700Y28411
X4700Y28411
X3700Y28411
X3700Y34411
X4700Y34411
X5700Y34411
X6700Y34411
X7700Y34411
X8700Y34411
X9700Y34411
X10700Y34411
X11700Y34411
X27700Y31291
X27700Y30651
X27700Y30011
T03
X29700Y29531
X30700Y31051
X32700Y31051
X33700Y29531
X32980Y32691
X32980Y34691
X40420Y34971
X41940Y34971
X44100Y33531
X41940Y30971
X40420Y30971
X44100Y29531
X48020Y29971
X48020Y28571
X52020Y28571
X48020Y31971
X49100Y33251
X51100Y33251
X41760Y25611
X38760Y25611
X35820Y25611
X34820Y25611
X33820Y25611
X34820Y23831
X34820Y19831
X34820Y17931
X33820Y17931
X34820Y16311
X35820Y17931
X38760Y17931
X41760Y17931
X45220Y17451
X45220Y19051
X45220Y20651
X45220Y22251
X49220Y22251
X49220Y20651
X51240Y20451
X51240Y19451
X51240Y18451
X51240Y17451
X51240Y16451
X51240Y15451
X51240Y14451
X49220Y13691
X49220Y15291
X49220Y17451
X49220Y19051
X54240Y19451
X54240Y20451
X56100Y20651
X56100Y22251
X60100Y22251
X60100Y20651
X60100Y19051
X60100Y17451
X62340Y18491
X62340Y19891
X62340Y21891
X63420Y23171
X65420Y23171
X66340Y18491
X65420Y17091
X63420Y17091
X62340Y15811
X60100Y15291
X60100Y13691
X62340Y13811
X62340Y12411
X66340Y12411
X57780Y11611
X55820Y12891
X56100Y13691
X56100Y15291
X54240Y15451
X54240Y16451
X54240Y17451
X54240Y18451
X56100Y19051
X56100Y17451
X54240Y14451
X53820Y12891
X53780Y11611
X45220Y13691
X45220Y15291
X41080Y9591
X37080Y9591
X34820Y12311
X25960Y8731
X24960Y8731
X24460Y6571
X26460Y6571
X17300Y7531
X17300Y9131
X17300Y10731
X17520Y12471
X17520Y13471
X17520Y14471
X17520Y15471
X17520Y16471
X17520Y17471
X17520Y18471
X17520Y19471
X17520Y20471
X17520Y21471
X17520Y22471
X17520Y23471
X17520Y24471
X17520Y25471
X14520Y25471
X14420Y26411
X14520Y24471
X14520Y23471
X14520Y22471
X14520Y21471
X14520Y20471
X14520Y19471
X14520Y18471
X14520Y17471
X14520Y16471
X14520Y15471
X14520Y14471
X14520Y13471
X14520Y12471
X13300Y10731
X13300Y9131
X13300Y7531
X9460Y8311
X9460Y9311
X9180Y11931
X7180Y11931
X3380Y9571
X3380Y7571
X10980Y15491
X12580Y15861
X10980Y17491
X10980Y18131
X12580Y17761
X12100Y19511
X10980Y20131
X12100Y21511
X10420Y26411
X18820Y19891
X18820Y17891
X20900Y28731
X21700Y30331
X24100Y31911
X24100Y32911
X21700Y34331
X24900Y28731
T04
X26680Y32411
X29680Y32411
X38500Y16591
X38500Y15591
X38500Y13711
X38500Y12711
X17560Y5931
X12560Y5931
X12020Y6951
X12020Y11951
T05
X9320Y16691
X9320Y17691
X9320Y18691
X9320Y19691
X9320Y20691
X9320Y21691
X9320Y22691
X9320Y23691
X43500Y23611
X44500Y23611
X45500Y23611
X46500Y23611
X47500Y23611
X48500Y23611
X49500Y23611
X50500Y23611
X51500Y23611
T06
X5620Y6631
X6620Y6631
X7620Y6631
X8620Y6631
X9620Y6631
X45240Y25711
X46240Y25711
X47240Y25711
X48240Y25711
X49240Y25711
X50240Y25711
X51240Y25711
X52240Y25711
X53240Y25711
X54240Y25711
X55240Y25711
X56240Y25711
X57240Y25711
X58240Y25711
X59240Y25711
X60240Y25711
X61240Y25711
X62240Y25711
X63240Y25711
X64240Y25711
X65240Y25711
X66240Y25711
X67240Y25711
X68240Y25711
X69240Y25711
X69060Y32011
X68060Y32011
X67060Y32011
X66060Y32011
X65060Y32011
X64060Y32011
X63060Y32011
X62060Y32011
X61060Y32011
X60060Y32011
X59060Y32011
X58060Y32011
X57060Y32011
X57060Y33011
X58060Y33011
X59060Y33011
X60060Y33011
X61060Y33011
X62060Y33011
X63060Y33011
X64060Y33011
X65060Y33011
X66060Y33011
X67060Y33011
X68060Y33011
X69060Y33011
X69240Y34671
X68240Y34671
X67240Y34671
X66240Y34671
X65240Y34671
X64240Y34671
X63240Y34671
X62240Y34671
X61240Y34671
X60240Y34671
X59240Y34671
X58240Y34671
X57240Y34671
X56240Y34671
X55240Y34671
X54240Y34671
X53240Y34671
X52240Y34671
X51240Y34671
X50240Y34671
X49240Y34671
X48240Y34671
X47240Y34671
X46240Y34671
X45240Y34671
X20380Y33231
X19380Y33231
X18380Y33231
X17380Y33231
X16380Y33231
X57060Y9711
X58060Y9711
X59060Y9711
X60060Y9711
X61060Y9711
X62060Y9711
X63060Y9711
X64060Y9711
X65060Y9711
X66060Y9711
X67060Y9711
X68060Y9711
X69060Y9711
X69060Y8711
X68060Y8711
X67060Y8711
X66060Y8711
X65060Y8711
X64060Y8711
X63060Y8711
X62060Y8711
X61060Y8711
X60060Y8711
X59060Y8711
X58060Y8711
X57060Y8711
T07
X52093Y7471
X50124Y7471
X48156Y7471
X46187Y7471
X44124Y7471
X42156Y7471
X68640Y21826
X68640Y23795
T08
X60100Y23451
X54940Y8571
T09
X32184Y10251
X27460Y10251
X27456Y27331
X32180Y27331
T10
X29818Y28118
X32180Y22528
X27456Y22528
X27460Y15054
X32184Y15054
X29822Y9463
T11
X43460Y12091
X51540Y12091
X3300Y16731
X3300Y23691
T12
X4340Y20171
X34900Y10171
X58580Y6331
X35460Y28491
M30
